<svg width="24" height="24" viewBox="0 0 24 24" fill="none" xmlns="http://www.w3.org/2000/svg">
<path d="M19.5635 2.41822C20.1215 1.86059 21.0234 1.86059 21.5814 2.41822C22.1395 2.97628 22.1395 3.8808 21.5814 4.43886L14.023 11.9603L21.5814 19.5634C22.1395 20.1214 22.1395 21.0233 21.5814 21.5813C21.0234 22.1394 20.1215 22.1394 19.5635 21.5813L11.9604 14.0229L4.43898 21.5813C3.88091 22.1394 2.97639 22.1394 2.41842 21.5813C1.86053 21.0233 1.86053 20.1214 2.41842 19.5634L9.97812 11.9603L2.41842 4.43886C1.86053 3.8808 1.86053 2.97628 2.41842 2.41822C2.97639 1.86059 3.88091 1.86059 4.43898 2.41822L11.9604 9.97801L19.5635 2.41822Z" fill="#4D5A67"/>
</svg>
