<?xml version="1.0" encoding="utf-8"?>
<!-- Generator: Adobe Illustrator 22.0.0, SVG Export Plug-In . SVG Version: 6.00 Build 0)  -->
<svg version="1.1" id="Layer_1" xmlns="http://www.w3.org/2000/svg" xmlns:xlink="http://www.w3.org/1999/xlink" x="0px" y="0px"
	 viewBox="0 0 512 512" style="enable-background:new 0 0 512 512;" xml:space="preserve">
<style type="text/css">
	.st0{fill:#909DAB;}
</style>
<path class="st0" d="M507.3,484.7L365.8,343.2c31.2-36.4,49.3-83.5,49.3-135.2c0-114.9-93.1-208-208-208S0,93.1,0,208
	s93.1,208,207.1,208c51.7,0,98.9-19,135.2-50.1l141.5,141.5c4,3,8.1,4.6,12.2,4.6s8.2-1.6,11.3-4.7
	C513.6,501.1,513.6,490.9,507.3,484.7z M208,384c-97.9,0-176-79-176-176S110.1,32,208,32s176,78.1,176,176S305,384,208,384z"/>
</svg>
