<?xml version="1.0" encoding="utf-8"?>
<!-- Generator: Adobe Illustrator 22.0.0, SVG Export Plug-In . SVG Version: 6.00 Build 0)  -->
<svg version="1.1" id="Layer_1" xmlns="http://www.w3.org/2000/svg" xmlns:xlink="http://www.w3.org/1999/xlink" x="0px" y="0px"
	 viewBox="0 0 448 512" style="enable-background:new 0 0 448 512;" xml:space="preserve">
<style type="text/css">
	.st0{fill:#394BC2;}
	.st1{opacity:0.4;fill:#394BC2;enable-background:new    ;}
</style>
<path class="st0" d="M96,32c0-17.7,14.3-32,32-32s32,14.3,32,32v32h128V32c0-17.7,14.3-32,32-32s32,14.3,32,32v32h48
	c26.5,0,48,21.5,48,48v80H0v-80c0-26.5,21.5-48,48-48h48V32z"/>
<path class="st1" d="M448,464c0,26.5-21.5,48-48,48H48c-26.5,0-48-21.5-48-48V192h448V464z M80,256c-8.8,0-16,7.2-16,16v96
	c0,8.8,7.2,16,16,16h96c8.8,0,16-7.2,16-16v-96c0-8.8-7.2-16-16-16H80z"/>
</svg>
