<svg width="16" height="16" viewBox="0 0 16 16" fill="none" xmlns="http://www.w3.org/2000/svg">
<path fill-rule="evenodd" clip-rule="evenodd" d="M8 0C3.58125 0 0 3.58125 0 8C0 12.4187 3.58125 16 8 16C12.4187 16 16 12.4187 16 8C16 3.58125 12.4187 0 8 0ZM6.94062 7.97187L5.46875 6.50312C5.17812 6.2375 5.17812 5.7625 5.46875 5.46875C5.7625 5.17812 6.2375 5.17812 6.50312 5.46875L7.97187 6.94062L9.46875 5.46875C9.7625 5.17812 10.2375 5.17812 10.5031 5.46875C10.8219 5.7625 10.8219 6.2375 10.5031 6.50312L9.05937 7.97187L10.5031 9.46875C10.8219 9.7625 10.8219 10.2375 10.5031 10.5031C10.2375 10.8219 9.7625 10.8219 9.46875 10.5031L7.97187 9.05937L6.50312 10.5031C6.2375 10.8219 5.7625 10.8219 5.46875 10.5031C5.17812 10.2375 5.17812 9.7625 5.46875 9.46875L6.94062 7.97187Z" fill="#F11C0E"/>
</svg>
