<?xml version="1.0" encoding="UTF-8"?>
<svg width="25px" height="25px" viewBox="0 0 25 25" version="1.1" xmlns="http://www.w3.org/2000/svg" xmlns:xlink="http://www.w3.org/1999/xlink">
    <title>Group 14</title>
    <defs>
        <polygon id="path-1" points="0 0 18.2388991 0 18.2388991 10.6444939 0 10.6444939"></polygon>
    </defs>
    <g id="Button-action" stroke="none" stroke-width="1" fill="none" fill-rule="evenodd">
        <g id="m_profile" transform="translate(-47.000000, -491.000000)">
            <g id="Group-14" transform="translate(48.000000, 491.000000)">
                <path d="M22.2173499,12.9776434 C22.2173499,19.06495 17.2438017,24 11.1083362,24 C4.97354817,24 0,19.06495 0,12.9776434 C0,6.89033679 4.97354817,1.95528679 11.1083362,1.95528679 C17.2438017,1.95528679 22.2173499,6.89033679 22.2173499,12.9776434" id="Fill-1" stroke="#394BC2" stroke-width="2" fill="#FFFFFF"></path>
                <g id="Group-5" transform="translate(5.761101, 0.000000)">
                    <mask id="mask-2" fill="white">
                        <use xlink:href="#path-1"></use>
                    </mask>
                    <g id="Clip-4"></g>
                    <path d="M13.0414315,1.67409148 C11.1464562,1.10289297 -2.06484874,-2.68318695 0.277278492,3.47182213 C0.330801214,3.61182821 0.398551496,3.74723315 0.477819325,3.87343582 C1.16277467,4.96719224 4.8023198,9.82862401 15.7514428,10.6384244 C16.9397828,10.7265034 17.9993972,9.84637126 18.1843554,8.62181104 C18.4526465,6.84840069 17.8598316,4.22640889 13.4709683,1.85222128 C13.3347903,1.77860306 13.1891272,1.71878826 13.0414315,1.67409148" id="Fill-3" fill="#394BC2" mask="url(#mask-2)"></path>
                </g>
                <path d="M20.0018479,3.21705051 C20.2525239,3.06061179 20.5248801,2.93046529 20.7985912,2.81740874 C20.7179684,2.85027401 20.6373455,2.8837966 20.5560452,2.91666187 C20.869729,2.7891446 21.1956079,2.68594763 21.5336818,2.64059355 C21.4442514,2.65242505 21.3541435,2.66425655 21.2640356,2.67608805 C21.2931683,2.67214421 21.3223009,2.66951499 21.3514335,2.66622846 C21.4909991,2.67148691 21.6217571,2.64322277 21.7430301,2.58143605 C21.8690457,2.54134041 21.9781236,2.47363794 22.0695865,2.37767133 C22.2464147,2.20677189 22.3785278,1.92610242 22.3676877,1.68027015 C22.3554927,1.4252356 22.2694498,1.16099878 22.0695865,0.982868974 C21.8825957,0.816570673 21.6149821,0.668019621 21.3514335,0.694311842 C21.0330072,0.725862508 20.7213559,0.774503118 20.4164796,0.869812421 C20.1346384,0.957891364 19.8602498,1.07160522 19.5919587,1.19254944 C19.3812553,1.28785875 19.1719069,1.39237033 18.9761086,1.51462916 C18.7552427,1.65200601 18.5797695,1.85379882 18.5086317,2.10357492 C18.4422364,2.33954761 18.4720465,2.65373966 18.6116121,2.86342013 C18.7511777,3.0737579 18.9598486,3.25911806 19.2186546,3.31630364 C19.4788157,3.37414653 19.7708194,3.36165772 20.0018479,3.21705051" id="Fill-6" fill="#394BC2"></path>
                <path d="M15.2191523,14.2226458 L15.2191523,14.2226458 C14.6202398,14.2226458 14.1344703,13.7513577 14.1344703,13.1702996 L14.1344703,10.9505788 C14.1344703,10.3695207 14.6202398,9.89888998 15.2191523,9.89888998 L15.2191523,9.89888998 C15.8180648,9.89888998 16.3038343,10.3695207 16.3038343,10.9505788 L16.3038343,13.1702996 C16.3038343,13.7513577 15.8180648,14.2226458 15.2191523,14.2226458" id="Fill-8" fill="#394BC2"></path>
                <path d="M6.99799434,14.2226458 L6.99799434,14.2226458 C6.39908185,14.2226458 5.91331233,13.7513577 5.91331233,13.1702996 L5.91331233,10.9505788 C5.91331233,10.3695207 6.39908185,9.89888998 6.99799434,9.89888998 L6.99799434,9.89888998 C7.59690683,9.89888998 8.08267635,10.3695207 8.08267635,10.9505788 L8.08267635,13.1702996 C8.08267635,13.7513577 7.59690683,14.2226458 6.99799434,14.2226458" id="Fill-10" fill="#394BC2"></path>
                <path d="M14.5360939,15.6152791 C14.5360939,16.98116 13.00155,18.0887198 11.1086072,18.0887198 C9.21566431,18.0887198 7.68112043,16.98116 7.68112043,15.6152791" id="Fill-12" fill="#394BC2"></path>
            </g>
        </g>
    </g>
</svg>